<svg xmlns="http://www.w3.org/2000/svg" version="1.1" width="262.7mm" height="222.7mm" viewBox = " 0 0 930.8275369999999 789.0951369999999" >
<!-- Front--> 
<g transform="translate(22.5000185, 22.5000185) " > 
<polygon style="stroke:#000000; fill:none; stroke-width:0.90000074" points="0, 0 30.118135, 0 30.118135, 10.62993 60.23627, 10.62993 60.23627, 0 81.49613, 0 81.49613, 10.62993 111.614265, 10.62993 111.614265, 0 141.73239999999998, 0 141.73239999999998, 30.118135 131.10246999999998, 30.118135 131.10246999999998, 60.23627 141.73239999999998, 60.23627 141.73239999999998, 81.49613 131.10246999999998, 81.49613 131.10246999999998, 111.614265 141.73239999999998, 111.614265 141.73239999999998, 141.73239999999998 111.614265, 141.73239999999998 111.614265, 131.10246999999998 81.49613, 131.10246999999998 81.49613, 141.73239999999998 60.23627, 141.73239999999998 60.23627, 131.10246999999998 30.118135, 131.10246999999998 30.118135, 141.73239999999998 0, 141.73239999999998 0, 111.614265 10.62993, 111.614265 10.62993, 81.49613 0, 81.49613 0, 60.23627 10.62993, 60.23627 10.62993, 30.118135 0, 30.118135 "/> 
</g>
<!-- Back--> 
<g transform="translate(164.2324185, 22.5000185) " > 
<polygon style="stroke:#000000; fill:none; stroke-width:0.90000074" points="0, 0 30.118135, 0 30.118135, 10.62993 60.23627, 10.62993 60.23627, 0 81.49613, 0 81.49613, 10.62993 111.614265, 10.62993 111.614265, 0 141.73239999999998, 0 141.73239999999998, 30.118135 131.10246999999998, 30.118135 131.10246999999998, 60.23627 141.73239999999998, 60.23627 141.73239999999998, 81.49613 131.10246999999998, 81.49613 131.10246999999998, 111.614265 141.73239999999998, 111.614265 141.73239999999998, 141.73239999999998 111.614265, 141.73239999999998 111.614265, 131.10246999999998 81.49613, 131.10246999999998 81.49613, 141.73239999999998 60.23627, 141.73239999999998 60.23627, 131.10246999999998 30.118135, 131.10246999999998 30.118135, 141.73239999999998 0, 141.73239999999998 0, 111.614265 10.62993, 111.614265 10.62993, 81.49613 0, 81.49613 0, 60.23627 10.62993, 60.23627 10.62993, 30.118135 0, 30.118135 "/> 
</g>
<!-- Left--> 
<g transform="translate(305.9648185, 22.5000185) " > 
<polygon style="stroke:#000000; fill:none; stroke-width:0.90000074" points="10.62993, 0 28.34648, 0 28.34648, 10.62993 56.69296, 10.62993 56.69296, 0 77.95282, 0 77.95282, 10.62993 99.21268, 10.62993 99.21268, 0 120.47254, 0 120.47254, 10.62993 141.73239999999998, 10.62993 141.73239999999998, 0 162.99226, 0 162.99226, 10.62993 184.25212, 10.62993 184.25212, 0 205.51198, 0 205.51198, 10.62993 226.77184, 10.62993 226.77184, 0 248.0317, 0 248.0317, 10.62993 269.29156, 10.62993 269.29156, 0 290.55142, 0 290.55142, 10.62993 311.81128, 10.62993 311.81128, 0 333.07114, 0 333.07114, 10.62993 354.331, 10.62993 354.331, 0 375.59086, 0 375.59086, 10.62993 396.85072, 10.62993 396.85072, 0 418.11058, 0 418.11058, 10.62993 439.37044000000003, 10.62993 439.37044000000003, 0 460.63030000000003, 0 460.63030000000003, 10.62993 481.89016000000004, 10.62993 481.89016000000004, 0 503.15002000000004, 0 503.15002000000004, 10.62993 524.40988, 10.62993 524.40988, 0 545.66974, 0 545.66974, 10.62993 574.01622, 10.62993 574.01622, 0 591.7327700000001, 0 591.7327700000001, 30.118135 602.3627, 30.118135 602.3627, 60.23627 591.7327700000001, 60.23627 591.7327700000001, 81.49613 602.3627, 81.49613 602.3627, 111.614265 591.7327700000001, 111.614265 591.7327700000001, 141.73239999999998 574.01622, 141.73239999999998 574.01622, 131.10246999999998 545.66974, 131.10246999999998 545.66974, 141.73239999999998 524.40988, 141.73239999999998 524.40988, 131.10246999999998 503.15002000000004, 131.10246999999998 503.15002000000004, 141.73239999999998 481.89016000000004, 141.73239999999998 481.89016000000004, 131.10246999999998 460.63030000000003, 131.10246999999998 460.63030000000003, 141.73239999999998 439.37044000000003, 141.73239999999998 439.37044000000003, 131.10246999999998 418.11058, 131.10246999999998 418.11058, 141.73239999999998 396.85072, 141.73239999999998 396.85072, 131.10246999999998 375.59086, 131.10246999999998 375.59086, 141.73239999999998 354.331, 141.73239999999998 354.331, 131.10246999999998 333.07114, 131.10246999999998 333.07114, 141.73239999999998 311.81128, 141.73239999999998 311.81128, 131.10246999999998 290.55142, 131.10246999999998 290.55142, 141.73239999999998 269.29156, 141.73239999999998 269.29156, 131.10246999999998 248.0317, 131.10246999999998 248.0317, 141.73239999999998 226.77184, 141.73239999999998 226.77184, 131.10246999999998 205.51198, 131.10246999999998 205.51198, 141.73239999999998 184.25212, 141.73239999999998 184.25212, 131.10246999999998 162.99226, 131.10246999999998 162.99226, 141.73239999999998 141.73239999999998, 141.73239999999998 141.73239999999998, 131.10246999999998 120.47254, 131.10246999999998 120.47254, 141.73239999999998 99.21268, 141.73239999999998 99.21268, 131.10246999999998 77.95282, 131.10246999999998 77.95282, 141.73239999999998 56.69296, 141.73239999999998 56.69296, 131.10246999999998 28.34648, 131.10246999999998 28.34648, 141.73239999999998 10.62993, 141.73239999999998 10.62993, 111.614265 0, 111.614265 0, 81.49613 10.62993, 81.49613 10.62993, 60.23627 0, 60.23627 0, 30.118135 10.62993, 30.118135 "/> 
</g>
<!-- Right--> 
<g transform="translate(305.9648185, 164.2324185) " > 
<polygon style="stroke:#000000; fill:none; stroke-width:0.90000074" points="10.62993, 0 28.34648, 0 28.34648, 10.62993 56.69296, 10.62993 56.69296, 0 77.95282, 0 77.95282, 10.62993 99.21268, 10.62993 99.21268, 0 120.47254, 0 120.47254, 10.62993 141.73239999999998, 10.62993 141.73239999999998, 0 162.99226, 0 162.99226, 10.62993 184.25212, 10.62993 184.25212, 0 205.51198, 0 205.51198, 10.62993 226.77184, 10.62993 226.77184, 0 248.0317, 0 248.0317, 10.62993 269.29156, 10.62993 269.29156, 0 290.55142, 0 290.55142, 10.62993 311.81128, 10.62993 311.81128, 0 333.07114, 0 333.07114, 10.62993 354.331, 10.62993 354.331, 0 375.59086, 0 375.59086, 10.62993 396.85072, 10.62993 396.85072, 0 418.11058, 0 418.11058, 10.62993 439.37044000000003, 10.62993 439.37044000000003, 0 460.63030000000003, 0 460.63030000000003, 10.62993 481.89016000000004, 10.62993 481.89016000000004, 0 503.15002000000004, 0 503.15002000000004, 10.62993 524.40988, 10.62993 524.40988, 0 545.66974, 0 545.66974, 10.62993 574.01622, 10.62993 574.01622, 0 591.7327700000001, 0 591.7327700000001, 30.118135 602.3627, 30.118135 602.3627, 60.23627 591.7327700000001, 60.23627 591.7327700000001, 81.49613 602.3627, 81.49613 602.3627, 111.614265 591.7327700000001, 111.614265 591.7327700000001, 141.73239999999998 574.01622, 141.73239999999998 574.01622, 131.10246999999998 545.66974, 131.10246999999998 545.66974, 141.73239999999998 524.40988, 141.73239999999998 524.40988, 131.10246999999998 503.15002000000004, 131.10246999999998 503.15002000000004, 141.73239999999998 481.89016000000004, 141.73239999999998 481.89016000000004, 131.10246999999998 460.63030000000003, 131.10246999999998 460.63030000000003, 141.73239999999998 439.37044000000003, 141.73239999999998 439.37044000000003, 131.10246999999998 418.11058, 131.10246999999998 418.11058, 141.73239999999998 396.85072, 141.73239999999998 396.85072, 131.10246999999998 375.59086, 131.10246999999998 375.59086, 141.73239999999998 354.331, 141.73239999999998 354.331, 131.10246999999998 333.07114, 131.10246999999998 333.07114, 141.73239999999998 311.81128, 141.73239999999998 311.81128, 131.10246999999998 290.55142, 131.10246999999998 290.55142, 141.73239999999998 269.29156, 141.73239999999998 269.29156, 131.10246999999998 248.0317, 131.10246999999998 248.0317, 141.73239999999998 226.77184, 141.73239999999998 226.77184, 131.10246999999998 205.51198, 131.10246999999998 205.51198, 141.73239999999998 184.25212, 141.73239999999998 184.25212, 131.10246999999998 162.99226, 131.10246999999998 162.99226, 141.73239999999998 141.73239999999998, 141.73239999999998 141.73239999999998, 131.10246999999998 120.47254, 131.10246999999998 120.47254, 141.73239999999998 99.21268, 141.73239999999998 99.21268, 131.10246999999998 77.95282, 131.10246999999998 77.95282, 141.73239999999998 56.69296, 141.73239999999998 56.69296, 131.10246999999998 28.34648, 131.10246999999998 28.34648, 141.73239999999998 10.62993, 141.73239999999998 10.62993, 111.614265 0, 111.614265 0, 81.49613 10.62993, 81.49613 10.62993, 60.23627 0, 60.23627 0, 30.118135 10.62993, 30.118135 "/> 
</g>
<!-- Top--> 
<g transform="translate(22.5000185, 164.2324185) " > 
<polygon style="stroke:#000000; fill:none; stroke-width:0.90000074" points="10.62993, 10.62993 30.118135, 10.62993 30.118135, 0 60.23627, 0 60.23627, 10.62993 81.49613, 10.62993 81.49613, 0 111.614265, 0 111.614265, 10.62993 131.10246999999998, 10.62993 131.10246999999998, 28.34648 141.73239999999998, 28.34648 141.73239999999998, 56.69296 131.10246999999998, 56.69296 131.10246999999998, 77.95282 141.73239999999998, 77.95282 141.73239999999998, 99.21268 131.10246999999998, 99.21268 131.10246999999998, 120.47254 141.73239999999998, 120.47254 141.73239999999998, 141.73239999999998 131.10246999999998, 141.73239999999998 131.10246999999998, 162.99226 141.73239999999998, 162.99226 141.73239999999998, 184.25212 131.10246999999998, 184.25212 131.10246999999998, 205.51198 141.73239999999998, 205.51198 141.73239999999998, 226.77184 131.10246999999998, 226.77184 131.10246999999998, 248.0317 141.73239999999998, 248.0317 141.73239999999998, 269.29156 131.10246999999998, 269.29156 131.10246999999998, 290.55142 141.73239999999998, 290.55142 141.73239999999998, 311.81128 131.10246999999998, 311.81128 131.10246999999998, 333.07114 141.73239999999998, 333.07114 141.73239999999998, 354.331 131.10246999999998, 354.331 131.10246999999998, 375.59086 141.73239999999998, 375.59086 141.73239999999998, 396.85072 131.10246999999998, 396.85072 131.10246999999998, 418.11058 141.73239999999998, 418.11058 141.73239999999998, 439.37044000000003 131.10246999999998, 439.37044000000003 131.10246999999998, 460.63030000000003 141.73239999999998, 460.63030000000003 141.73239999999998, 481.89016000000004 131.10246999999998, 481.89016000000004 131.10246999999998, 503.15002000000004 141.73239999999998, 503.15002000000004 141.73239999999998, 524.40988 131.10246999999998, 524.40988 131.10246999999998, 545.66974 141.73239999999998, 545.66974 141.73239999999998, 574.01622 131.10246999999998, 574.01622 131.10246999999998, 591.7327700000001 111.614265, 591.7327700000001 111.614265, 602.3627 81.49613, 602.3627 81.49613, 591.7327700000001 60.23627, 591.7327700000001 60.23627, 602.3627 30.118135, 602.3627 30.118135, 591.7327700000001 10.62993, 591.7327700000001 10.62993, 574.01622 0, 574.01622 0, 545.66974 10.62993, 545.66974 10.62993, 524.40988 0, 524.40988 0, 503.15002000000004 10.62993, 503.15002000000004 10.62993, 481.89016000000004 0, 481.89016000000004 0, 460.63030000000003 10.62993, 460.63030000000003 10.62993, 439.37044000000003 0, 439.37044000000003 0, 418.11058 10.62993, 418.11058 10.62993, 396.85072 0, 396.85072 0, 375.59086 10.62993, 375.59086 10.62993, 354.331 0, 354.331 0, 333.07114 10.62993, 333.07114 10.62993, 311.81128 0, 311.81128 0, 290.55142 10.62993, 290.55142 10.62993, 269.29156 0, 269.29156 0, 248.0317 10.62993, 248.0317 10.62993, 226.77184 0, 226.77184 0, 205.51198 10.62993, 205.51198 10.62993, 184.25212 0, 184.25212 0, 162.99226 10.62993, 162.99226 10.62993, 141.73239999999998 0, 141.73239999999998 0, 120.47254 10.62993, 120.47254 10.62993, 99.21268 0, 99.21268 0, 77.95282 10.62993, 77.95282 10.62993, 56.69296 0, 56.69296 0, 28.34648 10.62993, 28.34648 "/> 
</g>
<!-- Bottom--> 
<g transform="translate(164.2324185, 164.2324185) " > 
<polygon style="stroke:#000000; fill:none; stroke-width:0.90000074" points="10.62993, 10.62993 30.118135, 10.62993 30.118135, 0 60.23627, 0 60.23627, 10.62993 81.49613, 10.62993 81.49613, 0 111.614265, 0 111.614265, 10.62993 131.10246999999998, 10.62993 131.10246999999998, 28.34648 141.73239999999998, 28.34648 141.73239999999998, 56.69296 131.10246999999998, 56.69296 131.10246999999998, 77.95282 141.73239999999998, 77.95282 141.73239999999998, 99.21268 131.10246999999998, 99.21268 131.10246999999998, 120.47254 141.73239999999998, 120.47254 141.73239999999998, 141.73239999999998 131.10246999999998, 141.73239999999998 131.10246999999998, 162.99226 141.73239999999998, 162.99226 141.73239999999998, 184.25212 131.10246999999998, 184.25212 131.10246999999998, 205.51198 141.73239999999998, 205.51198 141.73239999999998, 226.77184 131.10246999999998, 226.77184 131.10246999999998, 248.0317 141.73239999999998, 248.0317 141.73239999999998, 269.29156 131.10246999999998, 269.29156 131.10246999999998, 290.55142 141.73239999999998, 290.55142 141.73239999999998, 311.81128 131.10246999999998, 311.81128 131.10246999999998, 333.07114 141.73239999999998, 333.07114 141.73239999999998, 354.331 131.10246999999998, 354.331 131.10246999999998, 375.59086 141.73239999999998, 375.59086 141.73239999999998, 396.85072 131.10246999999998, 396.85072 131.10246999999998, 418.11058 141.73239999999998, 418.11058 141.73239999999998, 439.37044000000003 131.10246999999998, 439.37044000000003 131.10246999999998, 460.63030000000003 141.73239999999998, 460.63030000000003 141.73239999999998, 481.89016000000004 131.10246999999998, 481.89016000000004 131.10246999999998, 503.15002000000004 141.73239999999998, 503.15002000000004 141.73239999999998, 524.40988 131.10246999999998, 524.40988 131.10246999999998, 545.66974 141.73239999999998, 545.66974 141.73239999999998, 574.01622 131.10246999999998, 574.01622 131.10246999999998, 591.7327700000001 111.614265, 591.7327700000001 111.614265, 602.3627 81.49613, 602.3627 81.49613, 591.7327700000001 60.23627, 591.7327700000001 60.23627, 602.3627 30.118135, 602.3627 30.118135, 591.7327700000001 10.62993, 591.7327700000001 10.62993, 574.01622 0, 574.01622 0, 545.66974 10.62993, 545.66974 10.62993, 524.40988 0, 524.40988 0, 503.15002000000004 10.62993, 503.15002000000004 10.62993, 481.89016000000004 0, 481.89016000000004 0, 460.63030000000003 10.62993, 460.63030000000003 10.62993, 439.37044000000003 0, 439.37044000000003 0, 418.11058 10.62993, 418.11058 10.62993, 396.85072 0, 396.85072 0, 375.59086 10.62993, 375.59086 10.62993, 354.331 0, 354.331 0, 333.07114 10.62993, 333.07114 10.62993, 311.81128 0, 311.81128 0, 290.55142 10.62993, 290.55142 10.62993, 269.29156 0, 269.29156 0, 248.0317 10.62993, 248.0317 10.62993, 226.77184 0, 226.77184 0, 205.51198 10.62993, 205.51198 10.62993, 184.25212 0, 184.25212 0, 162.99226 10.62993, 162.99226 10.62993, 141.73239999999998 0, 141.73239999999998 0, 120.47254 10.62993, 120.47254 10.62993, 99.21268 0, 99.21268 0, 77.95282 10.62993, 77.95282 10.62993, 56.69296 0, 56.69296 0, 28.34648 10.62993, 28.34648 "/> 
</g></svg>